<mxfile><diagram id="HIJFyRZneTgdanPOrnjn" name="Página-1"><mxGraphModel dx="586" dy="354" grid="1" gridSize="10" guides="1" tooltips="1" connect="1" arrows="1" fold="1" page="1" pageScale="1" pageWidth="827" pageHeight="1169" math="0" shadow="0"><root><mxCell id="0"/><mxCell id="1" parent="0"/><mxCell id="72EskA81aM-JTs61bv5a-164" style="edgeStyle=none;shape=link;html=1;exitX=1;exitY=1;exitDx=0;exitDy=0;fontColor=none;" edge="1" parent="1" source="72EskA81aM-JTs61bv5a-130" target="72EskA81aM-JTs61bv5a-133"><mxGeometry relative="1" as="geometry"/></mxCell><mxCell id="72EskA81aM-JTs61bv5a-165" style="edgeStyle=none;shape=link;html=1;exitX=1;exitY=0;exitDx=0;exitDy=0;entryX=1;entryY=0.5;entryDx=0;entryDy=0;fontColor=none;" edge="1" parent="1" source="72EskA81aM-JTs61bv5a-130" target="72EskA81aM-JTs61bv5a-151"><mxGeometry relative="1" as="geometry"/></mxCell><mxCell id="72EskA81aM-JTs61bv5a-130" value="100" style="ellipse;whiteSpace=wrap;html=1;" vertex="1" parent="1"><mxGeometry x="115" y="414" width="40" height="40" as="geometry"/></mxCell><mxCell id="72EskA81aM-JTs61bv5a-131" style="edgeStyle=none;shape=link;html=1;exitX=1;exitY=1;exitDx=0;exitDy=0;fontColor=none;" edge="1" parent="1" source="72EskA81aM-JTs61bv5a-133" target="72EskA81aM-JTs61bv5a-134"><mxGeometry relative="1" as="geometry"/></mxCell><mxCell id="72EskA81aM-JTs61bv5a-133" value="200" style="ellipse;whiteSpace=wrap;html=1;" vertex="1" parent="1"><mxGeometry x="162.5" y="474" width="40" height="40" as="geometry"/></mxCell><mxCell id="72EskA81aM-JTs61bv5a-134" value="300" style="ellipse;whiteSpace=wrap;html=1;" vertex="1" parent="1"><mxGeometry x="197.5" y="529" width="40" height="40" as="geometry"/></mxCell><mxCell id="72EskA81aM-JTs61bv5a-135" style="edgeStyle=none;shape=link;html=1;exitX=0;exitY=0;exitDx=0;exitDy=0;entryX=1;entryY=1;entryDx=0;entryDy=0;fontColor=none;" edge="1" parent="1" source="72EskA81aM-JTs61bv5a-136" target="72EskA81aM-JTs61bv5a-153"><mxGeometry relative="1" as="geometry"/></mxCell><mxCell id="72EskA81aM-JTs61bv5a-136" value="400" style="ellipse;whiteSpace=wrap;html=1;" vertex="1" parent="1"><mxGeometry x="376" y="474" width="40" height="40" as="geometry"/></mxCell><mxCell id="72EskA81aM-JTs61bv5a-137" style="edgeStyle=none;shape=link;html=1;exitX=0;exitY=0;exitDx=0;exitDy=0;entryX=1;entryY=1;entryDx=0;entryDy=0;" edge="1" parent="1" source="72EskA81aM-JTs61bv5a-138" target="72EskA81aM-JTs61bv5a-136"><mxGeometry relative="1" as="geometry"/></mxCell><mxCell id="72EskA81aM-JTs61bv5a-138" value="500" style="ellipse;whiteSpace=wrap;html=1;" vertex="1" parent="1"><mxGeometry x="422.5" y="519" width="40" height="40" as="geometry"/></mxCell><mxCell id="72EskA81aM-JTs61bv5a-139" value="fe = 0" style="rounded=0;whiteSpace=wrap;html=1;" vertex="1" parent="1"><mxGeometry x="192.5" y="569" width="50" height="20" as="geometry"/></mxCell><mxCell id="72EskA81aM-JTs61bv5a-140" value="fe =&amp;nbsp; 1" style="rounded=0;whiteSpace=wrap;html=1;" vertex="1" parent="1"><mxGeometry x="412.5" y="460" width="50" height="20" as="geometry"/></mxCell><mxCell id="72EskA81aM-JTs61bv5a-141" value="fe = 2" style="rounded=0;whiteSpace=wrap;html=1;" vertex="1" parent="1"><mxGeometry x="65" y="420" width="50" height="20" as="geometry"/></mxCell><mxCell id="72EskA81aM-JTs61bv5a-142" value="fe = -2" style="rounded=0;whiteSpace=wrap;html=1;" vertex="1" parent="1"><mxGeometry x="197.5" y="460" width="50" height="20" as="geometry"/></mxCell><mxCell id="72EskA81aM-JTs61bv5a-143" style="edgeStyle=none;shape=link;html=1;exitX=1;exitY=0;exitDx=0;exitDy=0;fontColor=none;" edge="1" parent="1" source="72EskA81aM-JTs61bv5a-145" target="72EskA81aM-JTs61bv5a-130"><mxGeometry relative="1" as="geometry"/></mxCell><mxCell id="72EskA81aM-JTs61bv5a-144" style="edgeStyle=none;shape=link;html=1;exitX=0;exitY=1;exitDx=0;exitDy=0;fontColor=none;" edge="1" parent="1" source="72EskA81aM-JTs61bv5a-145" target="72EskA81aM-JTs61bv5a-146"><mxGeometry relative="1" as="geometry"/></mxCell><mxCell id="72EskA81aM-JTs61bv5a-145" value="50" style="ellipse;whiteSpace=wrap;html=1;" vertex="1" parent="1"><mxGeometry x="60" y="460" width="40" height="40" as="geometry"/></mxCell><mxCell id="72EskA81aM-JTs61bv5a-146" value="25" style="ellipse;whiteSpace=wrap;html=1;" vertex="1" parent="1"><mxGeometry x="15" y="519" width="40" height="40" as="geometry"/></mxCell><mxCell id="72EskA81aM-JTs61bv5a-147" value="fe = 0" style="rounded=0;whiteSpace=wrap;html=1;" vertex="1" parent="1"><mxGeometry x="10" y="559" width="50" height="20" as="geometry"/></mxCell><mxCell id="72EskA81aM-JTs61bv5a-148" value="fe = 0" style="rounded=0;whiteSpace=wrap;html=1;" vertex="1" parent="1"><mxGeometry x="418" y="559" width="50" height="20" as="geometry"/></mxCell><mxCell id="72EskA81aM-JTs61bv5a-150" style="edgeStyle=none;shape=link;html=1;exitX=1;exitY=0.5;exitDx=0;exitDy=0;fontColor=none;" edge="1" parent="1" source="72EskA81aM-JTs61bv5a-151" target="72EskA81aM-JTs61bv5a-153"><mxGeometry relative="1" as="geometry"/></mxCell><mxCell id="72EskA81aM-JTs61bv5a-151" value="350" style="ellipse;whiteSpace=wrap;html=1;" vertex="1" parent="1"><mxGeometry x="237.5" y="380" width="40" height="40" as="geometry"/></mxCell><mxCell id="72EskA81aM-JTs61bv5a-152" value="fe =&amp;nbsp; 0" style="rounded=0;whiteSpace=wrap;html=1;" vertex="1" parent="1"><mxGeometry x="366" y="414" width="50" height="20" as="geometry"/></mxCell><mxCell id="72EskA81aM-JTs61bv5a-153" value="375" style="ellipse;whiteSpace=wrap;html=1;" vertex="1" parent="1"><mxGeometry x="326.5" y="414" width="40" height="40" as="geometry"/></mxCell><mxCell id="72EskA81aM-JTs61bv5a-154" value="fe = -2" style="rounded=0;whiteSpace=wrap;html=1;" vertex="1" parent="1"><mxGeometry x="227.5" y="360" width="50" height="20" as="geometry"/></mxCell><mxCell id="72EskA81aM-JTs61bv5a-155" style="edgeStyle=none;shape=link;html=1;exitX=0;exitY=1;exitDx=0;exitDy=0;fontColor=none;" edge="1" parent="1" source="72EskA81aM-JTs61bv5a-157" target="72EskA81aM-JTs61bv5a-159"><mxGeometry relative="1" as="geometry"/></mxCell><mxCell id="72EskA81aM-JTs61bv5a-156" style="edgeStyle=none;shape=link;html=1;exitX=0.5;exitY=0;exitDx=0;exitDy=0;entryX=0;entryY=1;entryDx=0;entryDy=0;fontColor=none;" edge="1" parent="1" source="72EskA81aM-JTs61bv5a-157" target="72EskA81aM-JTs61bv5a-153"><mxGeometry relative="1" as="geometry"/></mxCell><mxCell id="72EskA81aM-JTs61bv5a-157" value="360" style="ellipse;whiteSpace=wrap;html=1;" vertex="1" parent="1"><mxGeometry x="286.5" y="474" width="40" height="40" as="geometry"/></mxCell><mxCell id="72EskA81aM-JTs61bv5a-158" value="fe = -1" style="rounded=0;whiteSpace=wrap;html=1;" vertex="1" parent="1"><mxGeometry x="316" y="514" width="50" height="20" as="geometry"/></mxCell><mxCell id="72EskA81aM-JTs61bv5a-159" value="355" style="ellipse;whiteSpace=wrap;html=1;" vertex="1" parent="1"><mxGeometry x="260.5" y="519" width="40" height="40" as="geometry"/></mxCell><mxCell id="72EskA81aM-JTs61bv5a-160" value="fe = 0" style="rounded=0;whiteSpace=wrap;html=1;" vertex="1" parent="1"><mxGeometry x="255.5" y="560" width="50" height="20" as="geometry"/></mxCell><mxCell id="72EskA81aM-JTs61bv5a-167" style="edgeStyle=none;shape=link;html=1;exitX=1;exitY=0;exitDx=0;exitDy=0;fontColor=none;" edge="1" parent="1" source="72EskA81aM-JTs61bv5a-161" target="72EskA81aM-JTs61bv5a-133"><mxGeometry relative="1" as="geometry"/></mxCell><mxCell id="72EskA81aM-JTs61bv5a-173" style="edgeStyle=none;shape=link;html=1;exitX=1;exitY=1;exitDx=0;exitDy=0;fontColor=none;" edge="1" parent="1" source="72EskA81aM-JTs61bv5a-161" target="72EskA81aM-JTs61bv5a-170"><mxGeometry relative="1" as="geometry"/></mxCell><mxCell id="72EskA81aM-JTs61bv5a-176" style="edgeStyle=none;shape=link;html=1;exitX=0;exitY=1;exitDx=0;exitDy=0;fontColor=none;" edge="1" parent="1" source="72EskA81aM-JTs61bv5a-161" target="72EskA81aM-JTs61bv5a-174"><mxGeometry relative="1" as="geometry"/></mxCell><mxCell id="72EskA81aM-JTs61bv5a-161" value="150" style="ellipse;whiteSpace=wrap;html=1;" vertex="1" parent="1"><mxGeometry x="122.5" y="525" width="40" height="40" as="geometry"/></mxCell><mxCell id="72EskA81aM-JTs61bv5a-162" value="fe = 1" style="rounded=0;whiteSpace=wrap;html=1;" vertex="1" parent="1"><mxGeometry x="100" y="505" width="50" height="20" as="geometry"/></mxCell><mxCell id="72EskA81aM-JTs61bv5a-169" value="fe = -1" style="rounded=0;whiteSpace=wrap;html=1;" vertex="1" parent="1"><mxGeometry x="10" y="454" width="50" height="20" as="geometry"/></mxCell><mxCell id="72EskA81aM-JTs61bv5a-179" style="edgeStyle=none;shape=link;html=1;exitX=0.5;exitY=1;exitDx=0;exitDy=0;entryX=0;entryY=0;entryDx=0;entryDy=0;fontColor=none;" edge="1" parent="1" source="72EskA81aM-JTs61bv5a-170" target="72EskA81aM-JTs61bv5a-177"><mxGeometry relative="1" as="geometry"/></mxCell><mxCell id="72EskA81aM-JTs61bv5a-170" value="175" style="ellipse;whiteSpace=wrap;html=1;" vertex="1" parent="1"><mxGeometry x="155" y="600" width="40" height="40" as="geometry"/></mxCell><mxCell id="72EskA81aM-JTs61bv5a-172" value="fe = 1" style="rounded=0;whiteSpace=wrap;html=1;" vertex="1" parent="1"><mxGeometry x="195" y="610" width="50" height="20" as="geometry"/></mxCell><mxCell id="72EskA81aM-JTs61bv5a-174" value="120" style="ellipse;whiteSpace=wrap;html=1;" vertex="1" parent="1"><mxGeometry x="75" y="600" width="40" height="40" as="geometry"/></mxCell><mxCell id="72EskA81aM-JTs61bv5a-175" value="fe = 0" style="rounded=0;whiteSpace=wrap;html=1;" vertex="1" parent="1"><mxGeometry x="70" y="640" width="50" height="20" as="geometry"/></mxCell><mxCell id="72EskA81aM-JTs61bv5a-177" value="190" style="ellipse;whiteSpace=wrap;html=1;" vertex="1" parent="1"><mxGeometry x="187.5" y="660" width="40" height="40" as="geometry"/></mxCell><mxCell id="72EskA81aM-JTs61bv5a-180" value="fe = 0" style="rounded=0;whiteSpace=wrap;html=1;" vertex="1" parent="1"><mxGeometry x="182.5" y="700" width="50" height="20" as="geometry"/></mxCell><mxCell id="72EskA81aM-JTs61bv5a-184" style="edgeStyle=none;shape=link;html=1;exitX=1;exitY=1;exitDx=0;exitDy=0;fontColor=none;" edge="1" parent="1" source="72EskA81aM-JTs61bv5a-186" target="72EskA81aM-JTs61bv5a-188"><mxGeometry relative="1" as="geometry"/></mxCell><mxCell id="72EskA81aM-JTs61bv5a-185" style="edgeStyle=none;shape=link;html=1;exitX=1;exitY=0;exitDx=0;exitDy=0;entryX=1;entryY=0.5;entryDx=0;entryDy=0;fontColor=none;" edge="1" parent="1" source="72EskA81aM-JTs61bv5a-186" target="72EskA81aM-JTs61bv5a-205"><mxGeometry relative="1" as="geometry"/></mxCell><mxCell id="72EskA81aM-JTs61bv5a-186" value="100" style="ellipse;whiteSpace=wrap;html=1;" vertex="1" parent="1"><mxGeometry x="595" y="414" width="40" height="40" as="geometry"/></mxCell><mxCell id="72EskA81aM-JTs61bv5a-187" style="edgeStyle=none;shape=link;html=1;exitX=1;exitY=1;exitDx=0;exitDy=0;fontColor=none;" edge="1" parent="1" source="72EskA81aM-JTs61bv5a-188" target="72EskA81aM-JTs61bv5a-189"><mxGeometry relative="1" as="geometry"/></mxCell><mxCell id="72EskA81aM-JTs61bv5a-188" value="200" style="ellipse;whiteSpace=wrap;html=1;" vertex="1" parent="1"><mxGeometry x="642.5" y="474" width="40" height="40" as="geometry"/></mxCell><mxCell id="72EskA81aM-JTs61bv5a-189" value="300" style="ellipse;whiteSpace=wrap;html=1;" vertex="1" parent="1"><mxGeometry x="677.5" y="529" width="40" height="40" as="geometry"/></mxCell><mxCell id="72EskA81aM-JTs61bv5a-190" style="edgeStyle=none;shape=link;html=1;exitX=0;exitY=0;exitDx=0;exitDy=0;entryX=1;entryY=1;entryDx=0;entryDy=0;fontColor=none;" edge="1" parent="1" source="72EskA81aM-JTs61bv5a-191" target="72EskA81aM-JTs61bv5a-207"><mxGeometry relative="1" as="geometry"/></mxCell><mxCell id="72EskA81aM-JTs61bv5a-191" value="400" style="ellipse;whiteSpace=wrap;html=1;" vertex="1" parent="1"><mxGeometry x="856" y="474" width="40" height="40" as="geometry"/></mxCell><mxCell id="72EskA81aM-JTs61bv5a-192" style="edgeStyle=none;shape=link;html=1;exitX=0;exitY=0;exitDx=0;exitDy=0;entryX=1;entryY=1;entryDx=0;entryDy=0;" edge="1" parent="1" source="72EskA81aM-JTs61bv5a-193" target="72EskA81aM-JTs61bv5a-191"><mxGeometry relative="1" as="geometry"/></mxCell><mxCell id="72EskA81aM-JTs61bv5a-193" value="500" style="ellipse;whiteSpace=wrap;html=1;" vertex="1" parent="1"><mxGeometry x="902.5" y="519" width="40" height="40" as="geometry"/></mxCell><mxCell id="72EskA81aM-JTs61bv5a-194" value="fe = 0" style="rounded=0;whiteSpace=wrap;html=1;" vertex="1" parent="1"><mxGeometry x="672.5" y="569" width="50" height="20" as="geometry"/></mxCell><mxCell id="72EskA81aM-JTs61bv5a-195" value="fe =&amp;nbsp; 1" style="rounded=0;whiteSpace=wrap;html=1;" vertex="1" parent="1"><mxGeometry x="892.5" y="460" width="50" height="20" as="geometry"/></mxCell><mxCell id="72EskA81aM-JTs61bv5a-196" value="fe = 2" style="rounded=0;whiteSpace=wrap;html=1;" vertex="1" parent="1"><mxGeometry x="545" y="420" width="50" height="20" as="geometry"/></mxCell><mxCell id="72EskA81aM-JTs61bv5a-197" value="fe = -2" style="rounded=0;whiteSpace=wrap;html=1;" vertex="1" parent="1"><mxGeometry x="677.5" y="460" width="50" height="20" as="geometry"/></mxCell><mxCell id="72EskA81aM-JTs61bv5a-198" style="edgeStyle=none;shape=link;html=1;exitX=1;exitY=0;exitDx=0;exitDy=0;fontColor=none;" edge="1" parent="1" source="72EskA81aM-JTs61bv5a-200" target="72EskA81aM-JTs61bv5a-186"><mxGeometry relative="1" as="geometry"/></mxCell><mxCell id="72EskA81aM-JTs61bv5a-199" style="edgeStyle=none;shape=link;html=1;exitX=0;exitY=1;exitDx=0;exitDy=0;fontColor=none;" edge="1" parent="1" source="72EskA81aM-JTs61bv5a-200" target="72EskA81aM-JTs61bv5a-201"><mxGeometry relative="1" as="geometry"/></mxCell><mxCell id="72EskA81aM-JTs61bv5a-200" value="50" style="ellipse;whiteSpace=wrap;html=1;" vertex="1" parent="1"><mxGeometry x="540" y="460" width="40" height="40" as="geometry"/></mxCell><mxCell id="72EskA81aM-JTs61bv5a-201" value="25" style="ellipse;whiteSpace=wrap;html=1;" vertex="1" parent="1"><mxGeometry x="495" y="519" width="40" height="40" as="geometry"/></mxCell><mxCell id="72EskA81aM-JTs61bv5a-202" value="fe = 0" style="rounded=0;whiteSpace=wrap;html=1;" vertex="1" parent="1"><mxGeometry x="490" y="559" width="50" height="20" as="geometry"/></mxCell><mxCell id="72EskA81aM-JTs61bv5a-203" value="fe = 0" style="rounded=0;whiteSpace=wrap;html=1;" vertex="1" parent="1"><mxGeometry x="898" y="559" width="50" height="20" as="geometry"/></mxCell><mxCell id="72EskA81aM-JTs61bv5a-204" style="edgeStyle=none;shape=link;html=1;exitX=1;exitY=0.5;exitDx=0;exitDy=0;fontColor=none;" edge="1" parent="1" source="72EskA81aM-JTs61bv5a-205" target="72EskA81aM-JTs61bv5a-207"><mxGeometry relative="1" as="geometry"/></mxCell><mxCell id="72EskA81aM-JTs61bv5a-205" value="350" style="ellipse;whiteSpace=wrap;html=1;" vertex="1" parent="1"><mxGeometry x="717.5" y="380" width="40" height="40" as="geometry"/></mxCell><mxCell id="72EskA81aM-JTs61bv5a-206" value="fe =&amp;nbsp; 0" style="rounded=0;whiteSpace=wrap;html=1;" vertex="1" parent="1"><mxGeometry x="846" y="414" width="50" height="20" as="geometry"/></mxCell><mxCell id="72EskA81aM-JTs61bv5a-207" value="375" style="ellipse;whiteSpace=wrap;html=1;" vertex="1" parent="1"><mxGeometry x="806.5" y="414" width="40" height="40" as="geometry"/></mxCell><mxCell id="72EskA81aM-JTs61bv5a-208" value="fe = -2" style="rounded=0;whiteSpace=wrap;html=1;" vertex="1" parent="1"><mxGeometry x="707.5" y="360" width="50" height="20" as="geometry"/></mxCell><mxCell id="72EskA81aM-JTs61bv5a-209" style="edgeStyle=none;shape=link;html=1;exitX=0;exitY=1;exitDx=0;exitDy=0;fontColor=none;" edge="1" parent="1" source="72EskA81aM-JTs61bv5a-211" target="72EskA81aM-JTs61bv5a-213"><mxGeometry relative="1" as="geometry"/></mxCell><mxCell id="72EskA81aM-JTs61bv5a-210" style="edgeStyle=none;shape=link;html=1;exitX=0.5;exitY=0;exitDx=0;exitDy=0;entryX=0;entryY=1;entryDx=0;entryDy=0;fontColor=none;" edge="1" parent="1" source="72EskA81aM-JTs61bv5a-211" target="72EskA81aM-JTs61bv5a-207"><mxGeometry relative="1" as="geometry"/></mxCell><mxCell id="72EskA81aM-JTs61bv5a-211" value="360" style="ellipse;whiteSpace=wrap;html=1;" vertex="1" parent="1"><mxGeometry x="766.5" y="474" width="40" height="40" as="geometry"/></mxCell><mxCell id="72EskA81aM-JTs61bv5a-212" value="fe = -1" style="rounded=0;whiteSpace=wrap;html=1;" vertex="1" parent="1"><mxGeometry x="796" y="514" width="50" height="20" as="geometry"/></mxCell><mxCell id="72EskA81aM-JTs61bv5a-213" value="355" style="ellipse;whiteSpace=wrap;html=1;" vertex="1" parent="1"><mxGeometry x="740.5" y="519" width="40" height="40" as="geometry"/></mxCell><mxCell id="72EskA81aM-JTs61bv5a-214" value="fe = 0" style="rounded=0;whiteSpace=wrap;html=1;" vertex="1" parent="1"><mxGeometry x="735.5" y="560" width="50" height="20" as="geometry"/></mxCell><mxCell id="72EskA81aM-JTs61bv5a-217" style="edgeStyle=none;shape=link;html=1;exitX=0;exitY=1;exitDx=0;exitDy=0;fontColor=none;" edge="1" parent="1" source="72EskA81aM-JTs61bv5a-218" target="72EskA81aM-JTs61bv5a-224"><mxGeometry relative="1" as="geometry"/></mxCell><mxCell id="72EskA81aM-JTs61bv5a-231" style="edgeStyle=none;shape=link;html=1;exitX=1;exitY=0;exitDx=0;exitDy=0;entryX=0;entryY=1;entryDx=0;entryDy=0;fontColor=none;" edge="1" parent="1" source="72EskA81aM-JTs61bv5a-218" target="72EskA81aM-JTs61bv5a-222"><mxGeometry relative="1" as="geometry"/></mxCell><mxCell id="72EskA81aM-JTs61bv5a-218" value="150" style="ellipse;whiteSpace=wrap;html=1;" vertex="1" parent="1"><mxGeometry x="550" y="589" width="40" height="40" as="geometry"/></mxCell><mxCell id="72EskA81aM-JTs61bv5a-219" value="fe = -1" style="rounded=0;whiteSpace=wrap;html=1;" vertex="1" parent="1"><mxGeometry x="580" y="505" width="50" height="20" as="geometry"/></mxCell><mxCell id="72EskA81aM-JTs61bv5a-220" value="fe = -1" style="rounded=0;whiteSpace=wrap;html=1;" vertex="1" parent="1"><mxGeometry x="490" y="454" width="50" height="20" as="geometry"/></mxCell><mxCell id="72EskA81aM-JTs61bv5a-233" style="edgeStyle=none;shape=link;html=1;exitX=1;exitY=0;exitDx=0;exitDy=0;fontColor=none;" edge="1" parent="1" source="72EskA81aM-JTs61bv5a-222" target="72EskA81aM-JTs61bv5a-188"><mxGeometry relative="1" as="geometry"/></mxCell><mxCell id="72EskA81aM-JTs61bv5a-234" style="edgeStyle=none;shape=link;html=1;exitX=1;exitY=1;exitDx=0;exitDy=0;entryX=0;entryY=0;entryDx=0;entryDy=0;fontColor=none;" edge="1" parent="1" source="72EskA81aM-JTs61bv5a-222" target="72EskA81aM-JTs61bv5a-226"><mxGeometry relative="1" as="geometry"/></mxCell><mxCell id="72EskA81aM-JTs61bv5a-222" value="175" style="ellipse;whiteSpace=wrap;html=1;" vertex="1" parent="1"><mxGeometry x="595" y="525" width="40" height="40" as="geometry"/></mxCell><mxCell id="72EskA81aM-JTs61bv5a-223" value="fe = -1" style="rounded=0;whiteSpace=wrap;html=1;" vertex="1" parent="1"><mxGeometry x="500" y="600" width="50" height="20" as="geometry"/></mxCell><mxCell id="72EskA81aM-JTs61bv5a-224" value="120" style="ellipse;whiteSpace=wrap;html=1;" vertex="1" parent="1"><mxGeometry x="515" y="640" width="40" height="40" as="geometry"/></mxCell><mxCell id="72EskA81aM-JTs61bv5a-225" value="fe = 0" style="rounded=0;whiteSpace=wrap;html=1;" vertex="1" parent="1"><mxGeometry x="510" y="680" width="50" height="20" as="geometry"/></mxCell><mxCell id="72EskA81aM-JTs61bv5a-226" value="190" style="ellipse;whiteSpace=wrap;html=1;" vertex="1" parent="1"><mxGeometry x="632.5" y="590" width="40" height="40" as="geometry"/></mxCell><mxCell id="72EskA81aM-JTs61bv5a-227" value="fe = 0" style="rounded=0;whiteSpace=wrap;html=1;" vertex="1" parent="1"><mxGeometry x="627.5" y="630" width="50" height="20" as="geometry"/></mxCell><mxCell id="72EskA81aM-JTs61bv5a-230" value="" style="shape=singleArrow;direction=west;whiteSpace=wrap;html=1;fontColor=none;" vertex="1" parent="1"><mxGeometry x="65" y="530" width="60" height="30" as="geometry"/></mxCell><mxCell id="72EskA81aM-JTs61bv5a-235" value="" style="shape=singleArrow;whiteSpace=wrap;html=1;fontColor=none;" vertex="1" parent="1"><mxGeometry x="560" y="620" width="60" height="30" as="geometry"/></mxCell><mxCell id="72EskA81aM-JTs61bv5a-237" style="edgeStyle=none;shape=link;html=1;exitX=1;exitY=0;exitDx=0;exitDy=0;entryX=1;entryY=0.5;entryDx=0;entryDy=0;fontColor=none;" edge="1" parent="1" source="72EskA81aM-JTs61bv5a-238" target="72EskA81aM-JTs61bv5a-256"><mxGeometry relative="1" as="geometry"/></mxCell><mxCell id="72EskA81aM-JTs61bv5a-289" style="edgeStyle=none;shape=link;html=1;exitX=1;exitY=1;exitDx=0;exitDy=0;fontColor=none;" edge="1" parent="1" source="72EskA81aM-JTs61bv5a-238" target="72EskA81aM-JTs61bv5a-273"><mxGeometry relative="1" as="geometry"/></mxCell><mxCell id="72EskA81aM-JTs61bv5a-238" value="100" style="ellipse;whiteSpace=wrap;html=1;" vertex="1" parent="1"><mxGeometry x="120" y="814" width="40" height="40" as="geometry"/></mxCell><mxCell id="72EskA81aM-JTs61bv5a-239" style="edgeStyle=none;shape=link;html=1;exitX=1;exitY=1;exitDx=0;exitDy=0;fontColor=none;" edge="1" parent="1" source="72EskA81aM-JTs61bv5a-240" target="72EskA81aM-JTs61bv5a-241"><mxGeometry relative="1" as="geometry"/></mxCell><mxCell id="72EskA81aM-JTs61bv5a-290" style="edgeStyle=none;shape=link;html=1;exitX=0;exitY=0;exitDx=0;exitDy=0;fontColor=none;" edge="1" parent="1" source="72EskA81aM-JTs61bv5a-240" target="72EskA81aM-JTs61bv5a-273"><mxGeometry relative="1" as="geometry"/></mxCell><mxCell id="72EskA81aM-JTs61bv5a-240" value="200" style="ellipse;whiteSpace=wrap;html=1;" vertex="1" parent="1"><mxGeometry x="180.5" y="919" width="40" height="40" as="geometry"/></mxCell><mxCell id="72EskA81aM-JTs61bv5a-241" value="300" style="ellipse;whiteSpace=wrap;html=1;" vertex="1" parent="1"><mxGeometry x="227.5" y="994" width="40" height="40" as="geometry"/></mxCell><mxCell id="72EskA81aM-JTs61bv5a-242" style="edgeStyle=none;shape=link;html=1;exitX=0;exitY=0;exitDx=0;exitDy=0;entryX=1;entryY=1;entryDx=0;entryDy=0;fontColor=none;" edge="1" parent="1" source="72EskA81aM-JTs61bv5a-243" target="72EskA81aM-JTs61bv5a-258"><mxGeometry relative="1" as="geometry"/></mxCell><mxCell id="72EskA81aM-JTs61bv5a-243" value="400" style="ellipse;whiteSpace=wrap;html=1;" vertex="1" parent="1"><mxGeometry x="381" y="874" width="40" height="40" as="geometry"/></mxCell><mxCell id="72EskA81aM-JTs61bv5a-244" style="edgeStyle=none;shape=link;html=1;exitX=0;exitY=0;exitDx=0;exitDy=0;entryX=1;entryY=1;entryDx=0;entryDy=0;" edge="1" parent="1" source="72EskA81aM-JTs61bv5a-245" target="72EskA81aM-JTs61bv5a-243"><mxGeometry relative="1" as="geometry"/></mxCell><mxCell id="72EskA81aM-JTs61bv5a-245" value="500" style="ellipse;whiteSpace=wrap;html=1;" vertex="1" parent="1"><mxGeometry x="427.5" y="919" width="40" height="40" as="geometry"/></mxCell><mxCell id="72EskA81aM-JTs61bv5a-246" value="fe = 0" style="rounded=0;whiteSpace=wrap;html=1;" vertex="1" parent="1"><mxGeometry x="225.5" y="1034" width="50" height="20" as="geometry"/></mxCell><mxCell id="72EskA81aM-JTs61bv5a-247" value="fe =&amp;nbsp; 1" style="rounded=0;whiteSpace=wrap;html=1;" vertex="1" parent="1"><mxGeometry x="417.5" y="860" width="50" height="20" as="geometry"/></mxCell><mxCell id="72EskA81aM-JTs61bv5a-248" value="fe = 1" style="rounded=0;whiteSpace=wrap;html=1;" vertex="1" parent="1"><mxGeometry x="70" y="820" width="50" height="20" as="geometry"/></mxCell><mxCell id="72EskA81aM-JTs61bv5a-249" value="fe = -2" style="rounded=0;whiteSpace=wrap;html=1;" vertex="1" parent="1"><mxGeometry x="215.5" y="905" width="50" height="20" as="geometry"/></mxCell><mxCell id="72EskA81aM-JTs61bv5a-250" style="edgeStyle=none;shape=link;html=1;exitX=1;exitY=0;exitDx=0;exitDy=0;fontColor=none;" edge="1" parent="1" source="72EskA81aM-JTs61bv5a-252" target="72EskA81aM-JTs61bv5a-238"><mxGeometry relative="1" as="geometry"/></mxCell><mxCell id="72EskA81aM-JTs61bv5a-251" style="edgeStyle=none;shape=link;html=1;exitX=0;exitY=1;exitDx=0;exitDy=0;fontColor=none;" edge="1" parent="1" source="72EskA81aM-JTs61bv5a-252" target="72EskA81aM-JTs61bv5a-253"><mxGeometry relative="1" as="geometry"/></mxCell><mxCell id="72EskA81aM-JTs61bv5a-252" value="50" style="ellipse;whiteSpace=wrap;html=1;" vertex="1" parent="1"><mxGeometry x="65" y="860" width="40" height="40" as="geometry"/></mxCell><mxCell id="72EskA81aM-JTs61bv5a-253" value="25" style="ellipse;whiteSpace=wrap;html=1;" vertex="1" parent="1"><mxGeometry x="20" y="919" width="40" height="40" as="geometry"/></mxCell><mxCell id="72EskA81aM-JTs61bv5a-254" value="fe = 0" style="rounded=0;whiteSpace=wrap;html=1;" vertex="1" parent="1"><mxGeometry x="423" y="959" width="50" height="20" as="geometry"/></mxCell><mxCell id="72EskA81aM-JTs61bv5a-255" style="edgeStyle=none;shape=link;html=1;exitX=1;exitY=0.5;exitDx=0;exitDy=0;fontColor=none;" edge="1" parent="1" source="72EskA81aM-JTs61bv5a-256" target="72EskA81aM-JTs61bv5a-258"><mxGeometry relative="1" as="geometry"/></mxCell><mxCell id="72EskA81aM-JTs61bv5a-256" value="350" style="ellipse;whiteSpace=wrap;html=1;" vertex="1" parent="1"><mxGeometry x="242.5" y="780" width="40" height="40" as="geometry"/></mxCell><mxCell id="72EskA81aM-JTs61bv5a-257" value="fe =&amp;nbsp; 0" style="rounded=0;whiteSpace=wrap;html=1;" vertex="1" parent="1"><mxGeometry x="371" y="814" width="50" height="20" as="geometry"/></mxCell><mxCell id="72EskA81aM-JTs61bv5a-258" value="375" style="ellipse;whiteSpace=wrap;html=1;" vertex="1" parent="1"><mxGeometry x="331.5" y="814" width="40" height="40" as="geometry"/></mxCell><mxCell id="72EskA81aM-JTs61bv5a-259" value="fe = -1" style="rounded=0;whiteSpace=wrap;html=1;" vertex="1" parent="1"><mxGeometry x="232.5" y="760" width="50" height="20" as="geometry"/></mxCell><mxCell id="72EskA81aM-JTs61bv5a-260" style="edgeStyle=none;shape=link;html=1;exitX=0;exitY=1;exitDx=0;exitDy=0;fontColor=none;" edge="1" parent="1" source="72EskA81aM-JTs61bv5a-262" target="72EskA81aM-JTs61bv5a-264"><mxGeometry relative="1" as="geometry"/></mxCell><mxCell id="72EskA81aM-JTs61bv5a-261" style="edgeStyle=none;shape=link;html=1;exitX=0.5;exitY=0;exitDx=0;exitDy=0;entryX=0;entryY=1;entryDx=0;entryDy=0;fontColor=none;" edge="1" parent="1" source="72EskA81aM-JTs61bv5a-262" target="72EskA81aM-JTs61bv5a-258"><mxGeometry relative="1" as="geometry"/></mxCell><mxCell id="72EskA81aM-JTs61bv5a-262" value="360" style="ellipse;whiteSpace=wrap;html=1;" vertex="1" parent="1"><mxGeometry x="291.5" y="874" width="40" height="40" as="geometry"/></mxCell><mxCell id="72EskA81aM-JTs61bv5a-263" value="fe = -1" style="rounded=0;whiteSpace=wrap;html=1;" vertex="1" parent="1"><mxGeometry x="321" y="914" width="50" height="20" as="geometry"/></mxCell><mxCell id="72EskA81aM-JTs61bv5a-264" value="355" style="ellipse;whiteSpace=wrap;html=1;" vertex="1" parent="1"><mxGeometry x="265.5" y="919" width="40" height="40" as="geometry"/></mxCell><mxCell id="72EskA81aM-JTs61bv5a-265" value="fe = 0" style="rounded=0;whiteSpace=wrap;html=1;" vertex="1" parent="1"><mxGeometry x="260.5" y="960" width="50" height="20" as="geometry"/></mxCell><mxCell id="72EskA81aM-JTs61bv5a-266" style="edgeStyle=none;shape=link;html=1;exitX=0;exitY=1;exitDx=0;exitDy=0;fontColor=none;" edge="1" parent="1" source="72EskA81aM-JTs61bv5a-268" target="72EskA81aM-JTs61bv5a-275"><mxGeometry relative="1" as="geometry"/></mxCell><mxCell id="72EskA81aM-JTs61bv5a-267" style="edgeStyle=none;shape=link;html=1;exitX=1;exitY=0;exitDx=0;exitDy=0;entryX=0;entryY=1;entryDx=0;entryDy=0;fontColor=none;" edge="1" parent="1" source="72EskA81aM-JTs61bv5a-268" target="72EskA81aM-JTs61bv5a-273"><mxGeometry relative="1" as="geometry"/></mxCell><mxCell id="72EskA81aM-JTs61bv5a-268" value="150" style="ellipse;whiteSpace=wrap;html=1;" vertex="1" parent="1"><mxGeometry x="105" y="919.5" width="40" height="40" as="geometry"/></mxCell><mxCell id="72EskA81aM-JTs61bv5a-269" value="fe = 0" style="rounded=0;whiteSpace=wrap;html=1;" vertex="1" parent="1"><mxGeometry x="175.5" y="860" width="50" height="20" as="geometry"/></mxCell><mxCell id="72EskA81aM-JTs61bv5a-270" value="fe = -1" style="rounded=0;whiteSpace=wrap;html=1;" vertex="1" parent="1"><mxGeometry x="15" y="854" width="50" height="20" as="geometry"/></mxCell><mxCell id="72EskA81aM-JTs61bv5a-273" value="175" style="ellipse;whiteSpace=wrap;html=1;" vertex="1" parent="1"><mxGeometry x="140.5" y="874" width="40" height="40" as="geometry"/></mxCell><mxCell id="72EskA81aM-JTs61bv5a-274" value="fe = -1" style="rounded=0;whiteSpace=wrap;html=1;" vertex="1" parent="1"><mxGeometry x="115.5" y="960" width="50" height="20" as="geometry"/></mxCell><mxCell id="72EskA81aM-JTs61bv5a-275" value="120" style="ellipse;whiteSpace=wrap;html=1;" vertex="1" parent="1"><mxGeometry x="65" y="994" width="40" height="40" as="geometry"/></mxCell><mxCell id="72EskA81aM-JTs61bv5a-276" value="fe = 0" style="rounded=0;whiteSpace=wrap;html=1;" vertex="1" parent="1"><mxGeometry x="60" y="1034" width="50" height="20" as="geometry"/></mxCell><mxCell id="72EskA81aM-JTs61bv5a-277" value="190" style="ellipse;whiteSpace=wrap;html=1;" vertex="1" parent="1"><mxGeometry x="157.5" y="990.5" width="40" height="40" as="geometry"/></mxCell><mxCell id="72EskA81aM-JTs61bv5a-278" value="fe = 0" style="rounded=0;whiteSpace=wrap;html=1;" vertex="1" parent="1"><mxGeometry x="152.5" y="1034" width="50" height="20" as="geometry"/></mxCell><mxCell id="72EskA81aM-JTs61bv5a-295" style="edgeStyle=none;shape=link;html=1;exitX=0;exitY=1;exitDx=0;exitDy=0;fontColor=none;" edge="1" parent="1" source="72EskA81aM-JTs61bv5a-286" target="72EskA81aM-JTs61bv5a-277"><mxGeometry relative="1" as="geometry"/></mxCell><mxCell id="72EskA81aM-JTs61bv5a-286" value="200" style="ellipse;whiteSpace=wrap;html=1;" vertex="1" parent="1"><mxGeometry x="180.5" y="919.5" width="40" height="40" as="geometry"/></mxCell><mxCell id="72EskA81aM-JTs61bv5a-287" value="fe = 0" style="rounded=0;whiteSpace=wrap;html=1;" vertex="1" parent="1"><mxGeometry x="215.5" y="905.5" width="50" height="20" as="geometry"/></mxCell></root></mxGraphModel></diagram><diagram id="Rs-QBvG6dRQPl1H0zyi2" name="Página-2"><mxGraphModel dx="501" dy="301" grid="1" gridSize="10" guides="1" tooltips="1" connect="1" arrows="1" fold="1" page="1" pageScale="1" pageWidth="827" pageHeight="1169" math="0" shadow="0"><root><mxCell id="m9imBvj-WeymTraAuhN6-0"/><mxCell id="m9imBvj-WeymTraAuhN6-1" parent="m9imBvj-WeymTraAuhN6-0"/></root></mxGraphModel></diagram><diagram name="Página-1" id="OR-L2vrrPCpNIyxsLiyk"><mxGraphModel dx="498" dy="301" grid="1" gridSize="10" guides="1" tooltips="1" connect="1" arrows="1" fold="1" page="1" pageScale="1" pageWidth="827" pageHeight="1169" math="0" shadow="0"><root><mxCell id="0"/><mxCell id="1" parent="0"/><mxCell id="7Cb6SzfSGxrPc6pxl3ok-1" value="100" style="ellipse;whiteSpace=wrap;html=1;" parent="1" vertex="1"><mxGeometry x="70" y="40" width="40" height="40" as="geometry"/></mxCell></root></mxGraphModel></diagram><diagram name="Página-2" id="qYvawggKMwoXN_lJVlih"><mxGraphModel dx="501" dy="301" grid="1" gridSize="10" guides="1" tooltips="1" connect="1" arrows="1" fold="1" page="1" pageScale="1" pageWidth="827" pageHeight="1169" math="0" shadow="0"><root><mxCell id="m9imBvj-WeymTraAuhN6-0"/><mxCell id="m9imBvj-WeymTraAuhN6-1" parent="m9imBvj-WeymTraAuhN6-0"/></root></mxGraphModel></diagram></mxfile>